<svg xmlns="http://www.w3.org/2000/svg" width="26.77" height="26.795" viewBox="1600.913 37 26.77 26.795"><path d="M1608.951 63.795a2.576 2.576 0 0 1-1.892-.788 2.576 2.576 0 0 1-.787-1.892c0-.737.262-1.368.787-1.893a2.58 2.58 0 0 1 1.892-.786c.737 0 1.368.262 1.893.786.524.525.786 1.156.786 1.893a2.58 2.58 0 0 1-.786 1.892 2.581 2.581 0 0 1-1.893.788Zm13.397 0a2.576 2.576 0 0 1-1.891-.788 2.576 2.576 0 0 1-.788-1.892c0-.737.262-1.368.788-1.893a2.58 2.58 0 0 1 1.891-.786c.737 0 1.368.262 1.893.786.524.525.787 1.156.787 1.893a2.58 2.58 0 0 1-.787 1.892 2.581 2.581 0 0 1-1.893.788Zm-14.536-21.436 3.216 6.699h9.378l3.684-6.7h-16.278Zm-1.273-2.68h19.762c.513 0 .904.23 1.172.686.268.459.278.922.033 1.391l-4.756 8.574a2.682 2.682 0 0 1-.987 1.039 2.613 2.613 0 0 1-1.357.368h-9.981l-1.474 2.68h16.077v2.679h-16.077c-1.005 0-1.764-.44-2.278-1.324-.513-.881-.535-1.757-.067-2.628l1.81-3.283-4.824-10.182h-2.68V37h4.355l1.272 2.68Zm4.489 9.379h9.378-9.378Z" fill="#030404" fill-rule="evenodd" data-name="Path 4"/></svg>