<svg xmlns="http://www.w3.org/2000/svg" width="75.889" height="78.393" viewBox="1346 1151.339 75.889 78.393"><g data-name="Multiple Layers (3)"><g data-name="Group 28"><g data-name="Group 27"><path d="M1396.041 1229.35s2.363-8.738 3.032-11.156c.055-.212-.023-.305-.164-.42-2.916-2.344-8.945-7.221-8.945-7.221s11.155-.565 11.486-.569c.212 0 .308-.089.383-.286 1.096-2.9 4.086-10.746 4.086-10.746s2.782 7.27 4.097 10.743c.082.211.193.282.409.293 2.452.115 11.464.58 11.464.58s-6.015 4.855-8.897 7.165c-.204.164-.257.301-.186.565.992 3.618 2.998 11.048 2.998 11.048s-7.047-4.6-9.629-6.293c-.182-.123-.308-.126-.498-.004-3.094 2.032-9.636 6.3-9.636 6.3Z" fill="#8a949c" fill-rule="evenodd" data-name="Path 85"/></g></g><g data-name="Group 26"><path d="M1393.278 1229.732H1346v-20.75c0-10.666 8.678-19.343 19.343-19.343h20.81c7.845 0 14.866 4.658 17.886 11.872l-6.85 2.871c-1.86-4.442-6.192-7.314-11.036-7.314h-20.81c-6.568 0-11.914 5.342-11.914 11.913v13.321h39.849v7.43Z" fill="#8a949c" fill-rule="evenodd" data-name="Path 84"/></g><g data-name="Group 25"><path d="M1376.855 1187.818c-4.848 0-9.425-1.902-12.88-5.364-3.458-3.458-5.356-8.031-5.352-12.879.01-10.022 8.172-18.206 18.198-18.235 10.29-.06 18.225 7.916 18.295 18.102.034 4.914-1.846 9.532-5.29 13.001-3.443 3.466-8.05 5.375-12.968 5.375h-.003Zm-.011-29.049c-5.944.019-10.784 4.87-10.792 10.814-.003 2.86 1.126 5.568 3.18 7.619 2.05 2.058 4.759 3.187 7.623 3.187h.003c2.924 0 5.658-1.13 7.697-3.184 2.04-2.05 3.15-4.792 3.132-7.715a10.751 10.751 0 0 0-10.843-10.72Z" fill="#8a949c" fill-rule="evenodd" data-name="Path 83"/></g></g></svg>