<svg xmlns="http://www.w3.org/2000/svg" width="102.223" height="92" viewBox="1061.27 5836.5 102.223 92"><g data-name="Path 97"><path d="M1107.77 5929v-10.222h40.89v-36.29c0-9.966-3.471-18.42-10.417-25.36-6.941-6.941-15.395-10.417-25.362-10.417-9.966 0-18.42 3.476-25.366 10.416-6.941 6.941-10.411 15.395-10.411 25.362v31.178h-5.112c-2.81 0-5.218-.997-7.222-3-1.998-2.004-3-4.411-3-7.223v-10.222c0-1.789.445-3.47 1.34-5.044.894-1.575 2.151-2.832 3.771-3.773l.384-6.772c.68-5.79 2.361-11.157 5.044-16.1 2.684-4.937 6.052-9.24 10.095-12.905 4.048-3.66 8.689-6.517 13.928-8.561 5.238-2.045 10.758-3.067 16.55-3.067 5.79 0 11.285 1.022 16.483 3.067 5.198 2.044 9.839 4.88 13.928 8.5 4.088 3.618 7.452 7.901 10.094 12.838 2.642 4.943 4.344 10.31 5.111 16.1l.383 6.645a8.437 8.437 0 0 1 3.767 3.45c.895 1.533 1.345 3.153 1.345 4.855v11.756c0 1.707-.45 3.322-1.345 4.856a8.437 8.437 0 0 1-3.767 3.45v6.26c0 2.812-1.001 5.22-3.005 7.223-1.998 2.003-4.406 3-7.217 3h-40.889Z" fill="#8a949c" fill-rule="evenodd"/><path d="M1107.77 5929v-10.222h40.89v-36.29c0-9.966-3.471-18.42-10.417-25.36-6.941-6.941-15.395-10.417-25.362-10.417-9.966 0-18.42 3.476-25.366 10.416-6.941 6.941-10.411 15.395-10.411 25.362v31.178h-5.112c-2.81 0-5.218-.997-7.222-3-1.998-2.004-3-4.411-3-7.223v-10.222c0-1.789.445-3.47 1.34-5.044.894-1.575 2.151-2.832 3.771-3.773l.384-6.772c.68-5.79 2.361-11.157 5.044-16.1 2.684-4.937 6.052-9.24 10.095-12.905 4.048-3.66 8.689-6.517 13.928-8.561 5.238-2.045 10.758-3.067 16.55-3.067 5.79 0 11.285 1.022 16.483 3.067 5.198 2.044 9.839 4.88 13.928 8.5 4.088 3.618 7.452 7.901 10.094 12.838 2.642 4.943 4.344 10.31 5.111 16.1l.383 6.645a8.437 8.437 0 0 1 3.767 3.45c.895 1.533 1.345 3.153 1.345 4.855v11.756c0 1.707-.45 3.322-1.345 4.856a8.437 8.437 0 0 1-3.767 3.45v6.26c0 2.812-1.001 5.22-3.005 7.223-1.998 2.003-4.406 3-7.217 3h-40.889Z" stroke-linejoin="round" stroke-linecap="round" stroke="#8a949c" fill="transparent"/></g></svg>