<svg xmlns="http://www.w3.org/2000/svg" width="89.763" height="94.487" viewBox="1067.25 5625.25 89.763 94.487"><g data-name="Path 98"><path d="M1143.814 5720.374c-.598 0-1.16-.09-1.687-.279-.522-.189-1.012-.508-1.462-.958l-22.947-22.947c-.45-.45-.77-.936-.954-1.462a4.92 4.92 0 0 1-.283-1.687c0-.599.094-1.161.283-1.688.185-.522.504-1.012.954-1.462l9.561-9.561c.45-.45.94-.765 1.463-.954a4.957 4.957 0 0 1 1.687-.284 4.92 4.92 0 0 1 1.687.284 3.946 3.946 0 0 1 1.462.954l22.947 22.947c.45.45.77.94.959 1.462.184.526.279 1.089.279 1.687 0 .603-.095 1.165-.28 1.687-.188.527-.508 1.013-.958 1.463l-9.561 9.56c-.45.45-.936.77-1.462.96a4.918 4.918 0 0 1-1.688.278Zm0-10.686 3.262-3.262-16.535-16.535-3.262 3.262 16.535 16.535Zm-61.753 10.799a4.647 4.647 0 0 1-1.742-.338 4.502 4.502 0 0 1-1.52-1.012l-9.45-9.449a4.486 4.486 0 0 1-1.012-1.516 4.653 4.653 0 0 1-.337-1.746c0-.598.112-1.16.337-1.687a4.704 4.704 0 0 1 1.013-1.462l23.847-23.847h9.56l3.825-3.825-18.56-18.56h-6.411l-13.611-13.61 12.71-12.71 13.611 13.61v6.411l18.56 18.56 13.048-13.048-4.836-4.837 6.299-6.299h-12.711l-3.15-3.15 15.973-15.972 3.15 3.15v12.71l6.299-6.299 15.973 15.973a13.406 13.406 0 0 1 2.924 4.333 13.103 13.103 0 0 1 1.013 5.115c0 1.8-.338 3.528-1.013 5.175a13.16 13.16 0 0 1-2.924 4.387l-9.561-9.562-6.3 6.3-4.724-4.725-23.284 23.285v9.448l-23.847 23.847c-.45.45-.936.787-1.462 1.012a4.216 4.216 0 0 1-1.687.338Zm0-10.799 19.122-19.122v-3.262h-3.262l-19.122 19.122 3.262 3.262Zm0 0-3.262-3.262 1.687 1.575 1.575 1.687Zm61.753 0 3.262-3.262-3.262 3.262Z" fill="#8a949c" fill-rule="evenodd"/><path d="M1143.814 5720.374c-.598 0-1.16-.09-1.687-.279-.522-.189-1.012-.508-1.462-.958l-22.947-22.947c-.45-.45-.77-.936-.954-1.462a4.92 4.92 0 0 1-.283-1.687c0-.599.094-1.161.283-1.688.185-.522.504-1.012.954-1.462l9.561-9.561c.45-.45.94-.765 1.463-.954a4.957 4.957 0 0 1 1.687-.284 4.92 4.92 0 0 1 1.687.284 3.946 3.946 0 0 1 1.462.954l22.947 22.947c.45.45.77.94.959 1.462.184.526.279 1.089.279 1.687 0 .603-.095 1.165-.28 1.687-.188.527-.508 1.013-.958 1.463l-9.561 9.56c-.45.45-.936.77-1.462.96a4.918 4.918 0 0 1-1.688.278Zm0-10.686 3.262-3.262-16.535-16.535-3.262 3.262 16.535 16.535Zm-61.753 10.799a4.647 4.647 0 0 1-1.742-.338 4.502 4.502 0 0 1-1.52-1.012l-9.45-9.449a4.486 4.486 0 0 1-1.012-1.516 4.653 4.653 0 0 1-.337-1.746c0-.598.112-1.16.337-1.687a4.704 4.704 0 0 1 1.013-1.462l23.847-23.847h9.56l3.825-3.825-18.56-18.56h-6.411l-13.611-13.61 12.71-12.71 13.611 13.61v6.411l18.56 18.56 13.048-13.048-4.836-4.837 6.299-6.299h-12.711l-3.15-3.15 15.973-15.972 3.15 3.15v12.71l6.299-6.299 15.973 15.973a13.406 13.406 0 0 1 2.924 4.333 13.103 13.103 0 0 1 1.013 5.115c0 1.8-.338 3.528-1.013 5.175a13.16 13.16 0 0 1-2.924 4.387l-9.561-9.562-6.3 6.3-4.724-4.725-23.284 23.285v9.448l-23.847 23.847c-.45.45-.936.787-1.462 1.012a4.216 4.216 0 0 1-1.687.338Zm0-10.799 19.122-19.122v-3.262h-3.262l-19.122 19.122 3.262 3.262Zm0 0-3.262-3.262 1.687 1.575 1.575 1.687Zm61.753 0 3.262-3.262-3.262 3.262Z" stroke-linejoin="round" stroke-linecap="round" stroke-width="1.5" stroke="#8a949c" fill="transparent"/></g></svg>