<svg xmlns="http://www.w3.org/2000/svg" width="129.375" height="92" viewBox="240 5628 129.375 92"><path d="M277.375 5720c-4.79 0-8.866-1.673-12.219-5.031-3.352-3.353-5.03-7.423-5.03-12.219H245.75l2.588-11.5h16.243a17.3 17.3 0 0 1 5.75-4.238c2.203-1.006 4.554-1.512 7.044-1.512 2.49 0 4.842.506 7.044 1.512a17.298 17.298 0 0 1 5.75 4.238h24.006l12.075-51.75h-62.962l.575-2.444c.575-2.68 1.891-4.859 3.956-6.538 2.058-1.679 4.479-2.518 7.256-2.518h65.55l-5.319 23h16.82l17.25 23-5.75 28.75h-11.5c0 4.796-1.68 8.866-5.032 12.219-3.352 3.358-7.43 5.031-12.219 5.031-4.79 0-8.866-1.673-12.219-5.031-3.352-3.353-5.03-7.423-5.03-12.219h-23c0 4.796-1.68 8.866-5.032 12.219-3.352 3.358-7.43 5.031-12.219 5.031Zm51.319-40.25h27.744l.575-3.019-10.638-14.231H332.72l-4.025 17.25Zm-2.731-39.244.287-1.006-12.075 51.75.288-1.006 4.887-20.988 6.613-28.75ZM240 5681.62l2.875-11.5H274.5l-2.875 11.5H240Zm11.5-20.988 2.875-11.5h37.375l-2.875 11.5H251.5Zm25.875 47.869c1.627 0 2.996-.546 4.1-1.65 1.098-1.104 1.65-2.467 1.65-4.1 0-1.627-.552-2.99-1.65-4.094-1.104-1.104-2.473-1.656-4.1-1.656-1.627 0-2.996.552-4.094 1.656-1.104 1.104-1.656 2.467-1.656 4.094 0 1.633.552 2.996 1.656 4.1 1.098 1.104 2.467 1.65 4.094 1.65Zm57.5 0c1.627 0 2.996-.546 4.1-1.65 1.098-1.104 1.65-2.467 1.65-4.1 0-1.627-.552-2.99-1.65-4.094-1.104-1.104-2.473-1.656-4.1-1.656-1.627 0-2.996.552-4.094 1.656-1.104 1.104-1.656 2.467-1.656 4.094 0 1.633.552 2.996 1.656 4.1 1.098 1.104 2.467 1.65 4.094 1.65Z" fill="#8a949c" fill-rule="evenodd" data-name="Path 96"/></svg>