<svg xmlns="http://www.w3.org/2000/svg" width="12.438" height="24.033" viewBox="1704 108.218 12.438 24.033"><path d="M1712.106 132.251h-4.44v-10.964H1704v-4.279h3.659c0-.194-.003-.34 0-.487.026-1.239-.007-2.483.093-3.717.202-2.516 2.04-4.37 4.546-4.542 1.366-.094 2.745-.007 4.14-.002v3.91c-.314 0-.635-.006-.955.002-.613.016-1.229.01-1.839.066-.944.086-1.429.489-1.497 1.42-.081 1.094-.019 2.198-.019 3.34h4.193l-.553 4.27h-3.662v10.983Z" fill="#8a949c" fill-rule="evenodd" data-name="Path 117"/></svg>