<svg xmlns="http://www.w3.org/2000/svg" width="414" height="73.048" viewBox="97 8008 414 73.048"><g data-name="Multiple Layers (16)"><path d="M133.524 8008 97 8033.217v11.307h36.524V8008Z" fill="#ec4e15" fill-rule="evenodd" data-name="Path 147"/><path d="M133.524 8008h18.262a18.262 18.262 0 0 1 18.262 18.262v18.262h-36.524V8008z" fill="#46515a" fill-rule="evenodd" data-name="Rectangle 39"/><path d="m206.572 8008-36.524 25.217v11.307h36.524V8008Z" fill="#fff" fill-rule="evenodd" data-name="Path 148"/><path d="M170.048 8044.524h36.524v36.524h-36.524v-36.524z" fill="#46515a" fill-rule="evenodd" data-name="Rectangle 38"/><path d="M235.91 8056.776h-4.841v-24.505h3.25l9.617 13.894 9.515-13.894h3.317v24.505h-4.908v-13.894l-7.13 10.246h-1.69l-7.13-10.246v13.894Z" fill="#fff" fill-rule="evenodd" data-name="Path 149"/><path d="M278.817 8056.776h-16.612v-24.505h16.612v4.576h-11.671v5.273h10.81v4.575h-10.81v5.505h11.671v4.576Z" fill="#fff" fill-rule="evenodd" data-name="Path 150"/><path d="M294.304 8057.141c-3.693 0-6.754-1.183-9.185-3.548-2.388-2.387-3.582-5.405-3.582-9.053 0-3.691 1.238-6.731 3.714-9.118 2.476-2.388 5.56-3.582 9.251-3.582 1.946 0 3.797.36 5.555 1.078 1.758.718 3.2 1.686 4.327 2.901l-3.216 3.516c-1.835-1.835-4.058-2.753-6.666-2.753-2.276 0-4.167.752-5.67 2.255-1.504 1.504-2.254 3.394-2.254 5.67 0 2.234.73 4.112 2.188 5.638 1.503 1.525 3.393 2.287 5.67 2.287a9.518 9.518 0 0 0 3.614-.713c1.172-.475 2.156-1.11 2.951-1.906v-3.35h-6.764v-4.277h11.241v10.08c-3.117 3.25-6.842 4.875-11.174 4.875Z" fill="#fff" fill-rule="evenodd" data-name="Path 151"/><path d="M329.123 8056.776h-5.174l-1.824-5.306h-8.555l-1.89 5.306h-5.14l9.352-24.505h4.011l9.22 24.505Zm-8.39-9.682-2.852-8.158-2.918 8.158h5.77Z" fill="#fff" fill-rule="evenodd" data-name="Path 152"/><path d="M346.663 8057.175c-1.924 0-3.703-.398-5.338-1.194-1.637-.796-2.952-1.923-3.947-3.382l2.82-3.416c1.635 2.278 3.8 3.416 6.499 3.416 1.015 0 1.856-.244 2.52-.73.662-.486.994-1.116.994-1.89 0-1.017-.741-1.868-2.222-2.553-.176-.088-.984-.41-2.42-.962-1.128-.442-2.089-.884-2.885-1.327-2.587-1.48-3.88-3.514-3.88-6.1 0-2.057.774-3.759 2.321-5.107 1.57-1.37 3.582-2.056 6.036-2.056 3.182 0 5.869 1.105 8.057 3.316l-2.62 3.58c-.663-.706-1.486-1.264-2.47-1.673-.983-.41-1.951-.614-2.9-.614-.975 0-1.743.215-2.306.646-.564.432-.846 1.001-.846 1.708 0 .95.663 1.758 1.99 2.421l2.42 1.06a96.905 96.905 0 0 1 2.986 1.295c2.785 1.348 4.177 3.382 4.177 6.1 0 2.19-.829 3.98-2.487 5.372-1.658 1.393-3.824 2.09-6.499 2.09Z" fill="#fff" fill-rule="evenodd" data-name="Path 153"/><path d="M370.804 8057.174c-3.648 0-6.677-1.204-9.086-3.614-2.432-2.432-3.648-5.416-3.648-8.954 0-3.558 1.228-6.576 3.681-9.052 2.476-2.475 5.504-3.714 9.086-3.714 3.581 0 6.599 1.239 9.053 3.714 2.475 2.476 3.714 5.472 3.714 8.986 0 3.515-1.24 6.5-3.714 8.953-2.454 2.454-5.484 3.681-9.086 3.681Zm7.692-12.634c0-2.254-.74-4.122-2.221-5.603-1.503-1.504-3.316-2.255-5.438-2.255-2.123 0-3.935.751-5.438 2.255-1.482 1.481-2.222 3.349-2.222 5.603 0 2.234.73 4.09 2.188 5.571 1.482 1.482 3.305 2.222 5.472 2.222 2.166 0 3.99-.74 5.47-2.222 1.482-1.48 2.211-3.337 2.19-5.57Z" fill="#fff" fill-rule="evenodd" data-name="Path 154"/><path d="M404.99 8056.776h-17.375v-24.505h4.94v19.796h12.436v4.71Z" fill="#fff" fill-rule="evenodd" data-name="Path 155"/><path d="M407.412 8047.823v-15.552h4.942v15.22c0 1.614.408 2.84 1.227 3.681.816.84 1.956 1.26 3.415 1.26 1.414 0 2.531-.43 3.348-1.293.819-.862 1.228-2.078 1.228-3.648v-15.22h4.973v15.552c0 3.073-.906 5.405-2.719 6.997-1.79 1.591-4.067 2.387-6.83 2.387-2.764 0-5.053-.796-6.865-2.387-1.813-1.592-2.72-3.924-2.72-6.997Z" fill="#fff" fill-rule="evenodd" data-name="Path 156"/><path d="M436.46 8056.776v-19.763h-6.998v-4.742h18.968v4.742h-6.997v19.763h-4.974Z" fill="#fff" fill-rule="evenodd" data-name="Path 157"/><path d="M451.613 8056.776v-24.505h4.94v24.505h-4.94Z" fill="#fff" fill-rule="evenodd" data-name="Path 158"/><path d="M473.298 8057.174c-3.647 0-6.675-1.204-9.085-3.614-2.433-2.432-3.649-5.416-3.649-8.954 0-3.558 1.228-6.576 3.681-9.052 2.476-2.475 5.505-3.714 9.087-3.714 3.58 0 6.598 1.239 9.052 3.714 2.475 2.476 3.714 5.472 3.714 8.986 0 3.515-1.239 6.5-3.714 8.953-2.454 2.454-5.483 3.681-9.086 3.681Zm7.693-12.634c0-2.254-.74-4.122-2.221-5.603-1.503-1.504-3.315-2.255-5.438-2.255-2.124 0-3.936.751-5.438 2.255-1.482 1.481-2.222 3.349-2.222 5.603 0 2.234.73 4.09 2.188 5.571 1.48 1.482 3.305 2.222 5.472 2.222 2.165 0 3.99-.74 5.47-2.222 1.481-1.48 2.211-3.337 2.19-5.57Z" fill="#fff" fill-rule="evenodd" data-name="Path 159"/><path d="M506.159 8047.425v-15.154H511v24.505h-3.35l-12.7-15.021v15.021h-4.84v-24.505h3.117l12.932 15.154Z" fill="#fff" fill-rule="evenodd" data-name="Path 160"/></g></svg>