<svg xmlns="http://www.w3.org/2000/svg" width="24.085" height="24.078" viewBox="1733.832 108.218 24.085 24.078"><g data-name="Group 23"><path d="M1745.898 108.22c1.73 0 3.46-.002 5.19 0 3.398.007 6.033 2.147 6.714 5.469.088.426.107.872.107 1.308.008 3.51.011 7.02.003 10.53-.008 3.354-2.196 6.012-5.486 6.66-.438.087-.897.102-1.347.103-3.473.008-6.946.007-10.418.003-3.397-.004-6.033-2.146-6.714-5.467-.087-.426-.106-.872-.107-1.309-.008-3.51-.011-7.02-.002-10.53.008-3.353 2.195-6.012 5.485-6.66.439-.087.898-.1 1.347-.102 1.742-.011 3.486-.005 5.228-.005Zm-.027 21.941c1.705 0 3.41.021 5.114-.011.58-.011 1.187-.073 1.732-.257 1.935-.65 3.055-2.3 3.061-4.434.01-3.472.006-6.943-.002-10.415a5.078 5.078 0 0 0-.11-1.119c-.508-2.207-2.266-3.565-4.617-3.57-3.447-.007-6.894-.005-10.342.003a5.295 5.295 0 0 0-1.192.117c-2.194.517-3.538 2.264-3.544 4.6-.008 3.458-.005 6.917 0 10.376.001.693.083 1.377.389 2.011.871 1.808 2.332 2.685 4.322 2.697 1.73.01 3.46.002 5.189.002Z" fill="#8a949c" fill-rule="evenodd" data-name="Path 121"/><path d="M1745.873 114.058c3.423-.002 6.22 2.802 6.202 6.216-.019 3.419-2.786 6.18-6.199 6.182-3.423.002-6.22-2.801-6.201-6.216a6.207 6.207 0 0 1 6.198-6.182Zm-.015 10.263c2.241.004 4.078-1.816 4.082-4.047.004-2.242-1.817-4.077-4.048-4.081-2.242-.004-4.078 1.816-4.083 4.047-.003 2.241 1.817 4.077 4.049 4.081Z" fill="#8a949c" fill-rule="evenodd" data-name="Path 122"/><path d="M1752.355 115.37a1.573 1.573 0 0 1-1.581-1.534c-.02-.865.688-1.578 1.568-1.578.86.001 1.562.693 1.568 1.546.006.842-.705 1.558-1.555 1.566Z" fill="#8a949c" fill-rule="evenodd" data-name="Path 123"/></g></svg>