<svg xmlns="http://www.w3.org/2000/svg" width="24.079" height="24.066" viewBox="1169.338 8158.923 24.079 24.066"><g data-name="Multiple Layers (3)"><path d="M1172.225 8164.73c-1.577 0-2.88-1.31-2.887-2.902a2.898 2.898 0 0 1 2.876-2.905c1.591-.005 2.904 1.291 2.915 2.876.01 1.595-1.313 2.93-2.904 2.93Z" fill="#8a949c" fill-rule="evenodd" data-name="Path 120"/><path d="M1182.828 8182.987h-4.962v-16.048h4.774v2.186c.103-.12.15-.163.185-.216.993-1.526 2.453-2.243 4.218-2.379a7.17 7.17 0 0 1 2.997.388c1.8.647 2.708 2.045 3.048 3.833.188.991.292 2.011.305 3.02.04 2.982.016 5.966.017 8.95v.25h-4.972v-.427c0-2.419.008-4.838-.006-7.258a15.499 15.499 0 0 0-.124-2.023c-.251-1.822-1.362-2.609-3.172-2.291-1.227.215-2.021 1.1-2.18 2.481a18.034 18.034 0 0 0-.122 1.948c-.015 2.37-.006 4.739-.006 7.108v.478Z" fill="#8a949c" fill-rule="evenodd" data-name="Path 118"/><path d="M1174.71 8182.99h-4.95v-16.046h4.95v16.045Z" fill="#8a949c" fill-rule="evenodd" data-name="Path 119"/></g></svg>