<svg xmlns="http://www.w3.org/2000/svg" width="222.912" height="44.371" viewBox="806 33.444 222.912 44.371"><g data-name="Multiple Layers (19)"><path d="M930.558 52.428c-2.77 0-5.067-.887-6.892-2.662-1.792-1.791-2.687-4.056-2.687-6.792 0-2.77.929-5.051 2.786-6.842 1.858-1.792 4.172-2.688 6.942-2.688 1.46 0 2.849.27 4.168.809s2.4 1.265 3.247 2.177l-2.414 2.638c-1.377-1.377-3.044-2.066-5-2.066-1.71 0-3.128.564-4.255 1.692-1.129 1.129-1.692 2.546-1.692 4.255 0 1.676.547 3.085 1.642 4.23 1.128 1.144 2.545 1.716 4.254 1.716.93 0 1.833-.177 2.712-.535.88-.356 1.618-.833 2.215-1.43v-2.513h-5.076v-3.21h8.435v7.564c-2.34 2.438-5.134 3.657-8.385 3.657Z" fill="#030404" fill-rule="evenodd" data-name="Path 165"/><path d="M918.938 52.155h-12.465V33.768h12.465V37.2h-8.758v3.956h8.111v3.434h-8.11v4.13h8.757v3.434Z" fill="#030404" fill-rule="evenodd" data-name="Path 164"/><path d="M886.743 52.155h-3.633V33.768h2.439l7.215 10.425 7.14-10.425h2.49v18.387h-3.684V41.729l-5.35 7.689h-1.267l-5.35-7.689v10.426Z" fill="#030404" fill-rule="evenodd" data-name="Path 163"/><path d="m872.32 33.602-22.107 15.263v6.844h22.107V33.602Z" fill="#030404" fill-rule="evenodd" data-name="Path 162"/><path d="M828.107 33.602h11.053a11.053 11.053 0 0 1 11.053 11.053V55.71h-22.106V33.602z" fill="#46515a" fill-rule="evenodd" data-name="Rectangle 43"/><path d="M828.107 33.602 806 48.865v6.844h22.107V33.602Z" fill="#ec4e15" fill-rule="evenodd" data-name="Path 161"/><path d="M806 55.709h22.107v11.053a11.053 11.053 0 0 1-11.054 11.053H806V55.71z" fill="#030404" fill-rule="evenodd" data-name="Rectangle 40"/><path d="M828.107 55.709h22.106v11.053a11.053 11.053 0 0 1-11.053 11.053 11.053 11.053 0 0 1-11.053-11.053V55.71z" fill="#74bae2" fill-rule="evenodd" data-name="Rectangle 41"/><path d="M850.213 55.709h22.107v22.106h-22.107V55.71z" fill="#46515a" fill-rule="evenodd" data-name="Rectangle 42"/><path d="M890.077 77.79c-1.443 0-2.779-.298-4.006-.895a7.463 7.463 0 0 1-2.96-2.538l2.115-2.563c1.227 1.709 2.852 2.563 4.876 2.563.762 0 1.393-.183 1.891-.547.497-.365.746-.838.746-1.419 0-.763-.556-1.401-1.667-1.916-.133-.066-.738-.306-1.817-.721a18.062 18.062 0 0 1-2.164-.996c-1.94-1.11-2.911-2.636-2.911-4.577 0-1.543.58-2.82 1.742-3.832 1.177-1.028 2.687-1.543 4.528-1.543 2.389 0 4.404.83 6.046 2.488l-1.965 2.687a5.29 5.29 0 0 0-1.854-1.256c-.738-.307-1.464-.46-2.177-.46-.73 0-1.307.161-1.73.485-.422.323-.634.75-.634 1.281 0 .714.498 1.32 1.493 1.817l1.817.796c1.028.431 1.774.755 2.24.97 2.089 1.012 3.134 2.538 3.134 4.578 0 1.643-.622 2.986-1.866 4.031-1.245 1.045-2.87 1.568-4.877 1.568Z" fill="#030404" fill-rule="evenodd" data-name="Path 167"/><path d="M908.19 77.79c-2.736 0-5.01-.903-6.817-2.712-1.825-1.824-2.737-4.063-2.737-6.717 0-2.671.92-4.935 2.762-6.793 1.858-1.857 4.13-2.787 6.817-2.787 2.688 0 4.952.93 6.793 2.787 1.857 1.858 2.787 4.106 2.787 6.743 0 2.637-.93 4.877-2.787 6.718-1.841 1.84-4.114 2.762-6.818 2.762Zm5.773-9.48c0-1.691-.556-3.092-1.667-4.204-1.128-1.128-2.488-1.692-4.08-1.692-1.593 0-2.953.564-4.081 1.692-1.112 1.112-1.667 2.513-1.667 4.205 0 1.676.547 3.07 1.642 4.18 1.11 1.111 2.48 1.667 4.105 1.667 1.626 0 2.994-.556 4.106-1.667 1.11-1.11 1.658-2.504 1.642-4.18Z" fill="#030404" fill-rule="evenodd" data-name="Path 168"/><path d="M933.842 77.492h-13.037V59.104h3.707V73.96h9.33v3.533Z" fill="#030404" fill-rule="evenodd" data-name="Path 169"/><path d="M935.659 70.774v-11.67h3.708v11.421c0 1.21.306 2.132.92 2.762.613.63 1.469.945 2.563.945 1.061 0 1.9-.323 2.513-.97.614-.647.92-1.559.92-2.737v-11.42h3.733v11.669c0 2.306-.68 4.056-2.04 5.25-1.344 1.194-3.053 1.791-5.126 1.791-2.073 0-3.79-.597-5.15-1.791-1.361-1.194-2.041-2.944-2.041-5.25Z" fill="#030404" fill-rule="evenodd" data-name="Path 170"/><path d="M956.684 52.155h-3.882l-1.368-3.981h-6.42l-1.418 3.98h-3.857l7.017-18.386h3.01l6.918 18.387Zm-6.295-7.266-2.14-6.12-2.19 6.12h4.33Z" fill="#030404" fill-rule="evenodd" data-name="Path 166"/><path d="M957.455 77.492v-14.83h-5.25v-3.558h14.232v3.559h-5.25v14.829h-3.732Z" fill="#030404" fill-rule="evenodd" data-name="Path 171"/><path d="M968.825 77.492V59.104h3.707v18.388h-3.707Z" fill="#030404" fill-rule="evenodd" data-name="Path 172"/><path d="M985.096 77.79c-2.736 0-5.009-.903-6.816-2.712-1.826-1.824-2.738-4.063-2.738-6.717 0-2.671.92-4.935 2.762-6.793 1.858-1.857 4.13-2.787 6.818-2.787 2.687 0 4.95.93 6.792 2.787 1.857 1.858 2.787 4.106 2.787 6.743 0 2.637-.93 4.877-2.787 6.718-1.841 1.84-4.114 2.762-6.818 2.762Zm5.773-9.48c0-1.691-.556-3.092-1.667-4.204-1.128-1.128-2.488-1.692-4.08-1.692-1.593 0-2.953.564-4.08 1.692-1.112 1.112-1.668 2.513-1.668 4.205 0 1.676.547 3.07 1.642 4.18 1.111 1.111 2.48 1.667 4.106 1.667 1.625 0 2.993-.556 4.105-1.667 1.11-1.11 1.658-2.504 1.642-4.18Z" fill="#030404" fill-rule="evenodd" data-name="Path 173"/><path d="M1009.753 70.475v-11.37h3.633v18.387h-2.513l-9.53-11.271v11.27h-3.632V59.105h2.34l9.702 11.371Z" fill="#030404" fill-rule="evenodd" data-name="Path 174"/><path d="M1022.17 77.79c-1.444 0-2.78-.298-4.006-.895a7.463 7.463 0 0 1-2.96-2.538l2.114-2.563c1.227 1.709 2.852 2.563 4.877 2.563.762 0 1.393-.183 1.89-.547.498-.365.747-.838.747-1.419 0-.763-.556-1.401-1.667-1.916-.133-.066-.738-.306-1.817-.721a18.062 18.062 0 0 1-2.164-.996c-1.941-1.11-2.911-2.636-2.911-4.577 0-1.543.58-2.82 1.741-3.832 1.178-1.028 2.688-1.543 4.529-1.543 2.389 0 4.404.83 6.046 2.488l-1.965 2.687a5.29 5.29 0 0 0-1.854-1.256c-.738-.307-1.464-.46-2.177-.46-.73 0-1.307.161-1.73.485-.423.323-.634.75-.634 1.281 0 .714.497 1.32 1.493 1.817l1.816.796c1.029.431 1.775.755 2.24.97 2.09 1.012 3.134 2.538 3.134 4.578 0 1.643-.621 2.986-1.866 4.031-1.244 1.045-2.87 1.568-4.876 1.568Z" fill="#030404" fill-rule="evenodd" data-name="Path 179"/></g></svg>