<svg xmlns="http://www.w3.org/2000/svg" width="70.095" height="92" viewBox="268.89 5836.25 70.095 92"><g data-name="Path 95"><path d="m294.502 5888.257 3.833-12.486-10.076-8.104h12.486l3.943-12.267 3.942 12.267h12.486l-10.186 8.104 3.834 12.486-10.076-7.776-10.186 7.776Zm-16.1 40.743v-33.843c-2.773-3.067-4.929-6.571-6.462-10.514-1.533-3.943-2.3-8.14-2.3-12.595 0-9.783 3.395-18.072 10.186-24.862 6.79-6.79 15.079-10.186 24.862-10.186 9.782 0 18.071 3.395 24.862 10.186 6.79 6.79 10.185 15.079 10.185 24.862 0 4.455-.766 8.652-2.3 12.595-1.533 3.943-3.689 7.447-6.462 10.514V5929l-26.285-8.762-26.286 8.762Zm26.286-30.667c7.303 0 13.506-2.554 18.619-7.666 5.112-5.113 7.666-11.316 7.666-18.62 0-7.302-2.554-13.506-7.666-18.618-5.113-5.113-11.316-7.667-18.62-7.667-7.302 0-13.506 2.554-18.618 7.667-5.113 5.112-7.667 11.316-7.667 18.619 0 7.303 2.554 13.506 7.667 18.619 5.112 5.112 11.316 7.666 18.619 7.666Zm-17.524 17.634 17.524-4.49 17.523 4.49v-13.581a36.8 36.8 0 0 1-8.266 3.447c-2.958.842-6.046 1.262-9.257 1.262-3.212 0-6.296-.42-9.253-1.262a36.835 36.835 0 0 1-8.271-3.447v13.58Z" fill="#8a949c" fill-rule="evenodd"/><path d="m294.502 5888.257 3.833-12.486-10.076-8.104h12.486l3.943-12.267 3.942 12.267h12.486l-10.186 8.104 3.834 12.486-10.076-7.776-10.186 7.776Zm-16.1 40.743v-33.843c-2.773-3.067-4.929-6.571-6.462-10.514-1.533-3.943-2.3-8.14-2.3-12.595 0-9.783 3.395-18.072 10.186-24.862 6.79-6.79 15.079-10.186 24.862-10.186 9.782 0 18.071 3.395 24.862 10.186 6.79 6.79 10.185 15.079 10.185 24.862 0 4.455-.766 8.652-2.3 12.595-1.533 3.943-3.689 7.447-6.462 10.514V5929l-26.285-8.762-26.286 8.762Zm26.286-30.667c7.303 0 13.506-2.554 18.619-7.666 5.112-5.113 7.666-11.316 7.666-18.62 0-7.302-2.554-13.506-7.666-18.618-5.113-5.113-11.316-7.667-18.62-7.667-7.302 0-13.506 2.554-18.618 7.667-5.113 5.112-7.667 11.316-7.667 18.619 0 7.303 2.554 13.506 7.667 18.619 5.112 5.112 11.316 7.666 18.619 7.666Zm-17.524 17.634 17.524-4.49 17.523 4.49v-13.581a36.8 36.8 0 0 1-8.266 3.447c-2.958.842-6.046 1.262-9.257 1.262-3.212 0-6.296-.42-9.253-1.262a36.835 36.835 0 0 1-8.271-3.447v13.58Z" stroke-linejoin="round" stroke-linecap="round" stroke-width="1.5" stroke="#8a949c" fill="transparent"/></g></svg>