<svg xmlns="http://www.w3.org/2000/svg" width="80.287" height="78.432" viewBox="1149 1146.339 80.287 78.432"><path d="M1170.102 1163.09v-16.75h-8.161c-7.139 0-12.941 5.805-12.941 12.94v52.666l.05.778c.62 6.623 5.91 11.69 12.779 12.048h67.458v-61.682h-59.185Zm-13.899-3.81a5.746 5.746 0 0 1 5.738-5.738h.958v44.696c-2.723.263-4.924.9-6.696 1.78v-40.738Zm65.88 58.288h-59.775l-.292.004c-3.072-.162-5.51-2.482-5.777-5.183 0-.119-.01-.324-.025-.522.14-2.316.717-6.559 9.566-6.559.209 0 .425 0 .637.008l3.685.079v-35.101h51.982v47.274Z" fill="#8a949c" fill-rule="evenodd" data-name="Path 82"/></svg>