<svg xmlns="http://www.w3.org/2000/svg" width="24.093" height="24.093" viewBox="1755.907 39 24.093 24.093"><path d="m1778.126 63.093-8.432-8.433a8.171 8.171 0 0 1-5.086 1.74c-2.433 0-4.49-.842-6.175-2.527-1.684-1.684-2.526-3.74-2.526-6.173 0-2.432.842-4.49 2.526-6.174 1.685-1.684 3.742-2.526 6.174-2.526 2.431 0 4.49.842 6.173 2.526 1.684 1.685 2.528 3.742 2.528 6.174a8.17 8.17 0 0 1-.469 2.778 7.998 7.998 0 0 1-1.271 2.308L1780 61.22l-1.874 1.874Zm-13.519-9.37c1.673 0 3.095-.586 4.266-1.757 1.171-1.171 1.758-2.593 1.758-4.266s-.587-3.096-1.758-4.267c-1.171-1.171-2.593-1.756-4.266-1.756s-3.096.585-4.267 1.756c-1.17 1.171-1.756 2.594-1.756 4.267 0 1.673.585 3.095 1.756 4.266 1.171 1.171 2.594 1.757 4.267 1.757Z" fill="#030404" fill-rule="evenodd" data-name="Path 3"/></svg>