<svg xmlns="http://www.w3.org/2000/svg" width="125.042" height="78.432" viewBox="1596 1151.339 125.042 78.432"><g data-name="Multiple Layers (4)"><path d="M1721.042 1201.623c0-7.877-6.42-14.282-14.314-14.282h-21.456c-3.947 0-7.65 1.633-10.3 4.403-1.437-.442-2.93-.747-4.512-.747h-23.875c-1.58 0-3.074.305-4.512.747a14.257 14.257 0 0 0-10.3-4.403h-21.455c-7.895 0-14.318 6.405-14.318 14.282v21.326h35.107v6.822h54.831v-6.822h35.104v-21.326Zm-117.09 13.378v-13.378c0-3.492 2.856-6.331 6.366-6.331h21.455c1.189 0 2.321.343 3.296.94-2.433 2.737-3.962 6.3-3.962 10.24v8.53h-27.156Zm74.039 6.82h-38.933v-15.35c0-4.147 3.377-7.526 7.527-7.526h23.875c4.15 0 7.53 3.38 7.53 7.527v15.348Zm35.103-6.82h-27.156v-8.53c0-3.94-1.525-7.502-3.961-10.24a6.314 6.314 0 0 1 3.295-.94h21.456c3.51 0 6.366 2.84 6.366 6.332v13.378Z" fill="#8a949c" fill-rule="evenodd" data-name="Path 89"/><path d="M1621.028 1183.926c4.39 0 8.505-1.707 11.58-4.807 3.078-3.095 4.754-7.218 4.722-11.607-.056-9.094-7.197-16.359-16.34-16.17-8.95.029-16.243 7.335-16.25 16.289-.007 4.326 1.69 8.414 4.775 11.502 3.089 3.093 7.176 4.793 11.513 4.793Zm-.01-24.632h.028c4.645 0 8.305 3.629 8.336 8.274.014 2.254-.841 4.368-2.415 5.95-3.11 3.133-8.617 3.21-11.825-.004-1.585-1.585-2.454-3.675-2.454-5.876.007-4.586 3.74-8.33 8.33-8.344Z" fill="#8a949c" fill-rule="evenodd" data-name="Path 87"/><path d="M1658.512 1189.749c4.642 0 8.986-1.802 12.239-5.076 3.25-3.275 5.024-7.63 4.992-12.27-.063-9.593-7.614-17.085-17.21-17.085h-.056c-9.462.032-17.164 7.752-17.175 17.214-.003 4.568 1.788 8.884 5.049 12.148 3.263 3.27 7.583 5.069 12.161 5.069Zm-.01-27.419h.031c5.683 0 10.16 4.438 10.199 10.121.017 2.756-1.031 5.343-2.956 7.278-3.81 3.843-10.545 3.923-14.465-.003-1.935-1.939-3-4.491-2.997-7.187.007-5.613 4.575-10.191 10.188-10.209Z" fill="#8a949c" fill-rule="evenodd" data-name="Path 86"/><path d="M1696 1183.926c4.396 0 8.512-1.707 11.583-4.807 3.075-3.099 4.754-7.222 4.722-11.607-.056-9.077-7.204-16.17-16.28-16.17h-.06c-8.95.029-16.243 7.335-16.25 16.289-.007 4.326 1.69 8.414 4.779 11.502 3.085 3.093 7.173 4.793 11.506 4.793Zm-.007-24.632h.028c4.645 0 8.305 3.629 8.337 8.274a8.312 8.312 0 0 1-2.416 5.95c-3.106 3.133-8.614 3.21-11.825-.004-1.581-1.585-2.454-3.675-2.454-5.876.007-4.586 3.74-8.33 8.33-8.344Z" fill="#8a949c" fill-rule="evenodd" data-name="Path 88"/></g></svg>