<svg xmlns="http://www.w3.org/2000/svg" width="21.416" height="21.416" viewBox="1549.497 40 21.416 21.416"><path d="M1560.205 50.708c-1.473 0-2.732-.525-3.781-1.573s-1.573-2.309-1.573-3.781.524-2.733 1.573-3.781 2.308-1.573 3.78-1.573c1.473 0 2.734.525 3.782 1.573 1.05 1.048 1.573 2.309 1.573 3.781s-.524 2.733-1.573 3.781c-1.048 1.048-2.309 1.573-3.781 1.573Zm-10.708 10.708v-3.748c0-.759.195-1.456.586-2.092.39-.636.909-1.12 1.555-1.455a19.935 19.935 0 0 1 4.217-1.557 18.441 18.441 0 0 1 4.35-.518c1.472 0 2.923.173 4.35.518 1.428.347 2.833.865 4.216 1.557a3.9 3.9 0 0 1 1.557 1.455c.39.636.585 1.333.585 2.092v3.748h-21.416Zm2.677-2.677h16.062v-1.07c0-.246-.06-.47-.184-.67a1.304 1.304 0 0 0-.486-.469 17.441 17.441 0 0 0-3.647-1.356 15.515 15.515 0 0 0-7.429 0 17.469 17.469 0 0 0-3.647 1.356 1.3 1.3 0 0 0-.67 1.138v1.07Zm8.03-10.708c.737 0 1.367-.262 1.892-.787a2.573 2.573 0 0 0 .786-1.89c0-.736-.261-1.367-.786-1.891a2.583 2.583 0 0 0-1.891-.786c-.736 0-1.367.262-1.89.786a2.579 2.579 0 0 0-.787 1.891c0 .736.262 1.367.787 1.89a2.574 2.574 0 0 0 1.89.787Z" fill="#030404" fill-rule="evenodd" data-name="Path 2"/></svg>