<svg xmlns="http://www.w3.org/2000/svg" width="26.77" height="24.561" viewBox="1657.682 38 26.77 24.561"><path d="m1671.067 62.561-1.94-1.74c-2.253-2.03-4.116-3.781-5.589-5.253-1.472-1.473-2.643-2.795-3.513-3.966-.87-1.171-1.478-2.248-1.825-3.229a9.009 9.009 0 0 1-.518-3.011c0-2.098.703-3.848 2.109-5.254 1.405-1.405 3.156-2.108 5.253-2.108 1.16 0 2.265.245 3.313.736a7.945 7.945 0 0 1 2.71 2.075 7.945 7.945 0 0 1 2.71-2.075 7.712 7.712 0 0 1 3.314-.736c2.097 0 3.848.703 5.253 2.108 1.406 1.406 2.108 3.156 2.108 5.254 0 1.026-.172 2.03-.518 3.011-.346.981-.954 2.058-1.824 3.229-.87 1.17-2.041 2.493-3.514 3.966-1.472 1.472-3.335 3.223-5.588 5.253l-1.94 1.74Zm0-3.614c2.142-1.918 3.905-3.564 5.287-4.936 1.383-1.372 2.477-2.565 3.28-3.58.803-1.015 1.361-1.918 1.673-2.71a6.397 6.397 0 0 0 .468-2.36c0-1.338-.445-2.453-1.338-3.346-.893-.892-2.008-1.338-3.346-1.338a5.175 5.175 0 0 0-2.912.886c-.892.592-1.505 1.345-1.84 2.26h-2.543c-.335-.915-.948-1.668-1.84-2.26a5.175 5.175 0 0 0-2.912-.886c-1.338 0-2.453.446-3.346 1.338-.893.893-1.339 2.008-1.339 3.347 0 .78.157 1.567.469 2.358.312.793.87 1.696 1.673 2.71.803 1.016 1.897 2.21 3.28 3.581 1.382 1.372 3.145 3.018 5.286 4.936Z" fill="#030404" fill-rule="evenodd" data-name="Path 5"/></svg>